<svg xmlns="http://www.w3.org/2000/svg" width="880" height="162" viewBox="0 0 880 162" fill="none" role="img" aria-label="Connect"><title>Connect</title><rect x="0.5" y="0.5" width="879" height="161" rx="14" fill="#F3F6F4" stroke="#DCE5E0" stroke-width="1"/><g opacity="0.8"><circle cx="740" cy="34" r="1.4" fill="#DCE5E0"/><circle cx="740" cy="50" r="1.4" fill="#DCE5E0"/><circle cx="740" cy="66" r="1.4" fill="#DCE5E0"/><circle cx="756" cy="34" r="1.4" fill="#DCE5E0"/><circle cx="756" cy="50" r="1.4" fill="#DCE5E0"/><circle cx="756" cy="66" r="1.4" fill="#DCE5E0"/><circle cx="772" cy="34" r="1.4" fill="#DCE5E0"/><circle cx="772" cy="50" r="1.4" fill="#DCE5E0"/><circle cx="772" cy="66" r="1.4" fill="#DCE5E0"/><circle cx="788" cy="34" r="1.4" fill="#DCE5E0"/><circle cx="788" cy="50" r="1.4" fill="#DCE5E0"/><circle cx="788" cy="66" r="1.4" fill="#DCE5E0"/><circle cx="804" cy="34" r="1.4" fill="#DCE5E0"/><circle cx="804" cy="50" r="1.4" fill="#DCE5E0"/><circle cx="804" cy="66" r="1.4" fill="#DCE5E0"/><circle cx="820" cy="34" r="1.4" fill="#DCE5E0"/><circle cx="820" cy="50" r="1.4" fill="#DCE5E0"/><circle cx="820" cy="66" r="1.4" fill="#DCE5E0"/><circle cx="836" cy="34" r="1.4" fill="#DCE5E0"/><circle cx="836" cy="50" r="1.4" fill="#DCE5E0"/><circle cx="836" cy="66" r="1.4" fill="#DCE5E0"/></g><text x="34" y="54" font-family="'Segoe UI',Roboto,'Helvetica Neue',Helvetica,Arial,sans-serif" font-size="18" fill="#0F1513" font-weight="600">Open to senior full-stack roles and freelance work.</text><text x="34" y="80" font-family="'Segoe UI',Roboto,'Helvetica Neue',Helvetica,Arial,sans-serif" font-size="14" fill="#54655C">The fastest way to reach me is email — I reply within a day.</text><line x1="34" y1="104" x2="840" y2="104" stroke="#DCE5E0" stroke-width="1"/><text x="34" y="128" font-family="'Segoe UI',Roboto,'Helvetica Neue',Helvetica,Arial,sans-serif" font-size="10" fill="#7C8E85" font-weight="600" letter-spacing="1.8">EMAIL</text><text x="34" y="147" font-family="'Segoe UI',Roboto,'Helvetica Neue',Helvetica,Arial,sans-serif" font-size="14" fill="#0F1513">mrkbryngbrl@gmail.com</text><text x="306" y="128" font-family="'Segoe UI',Roboto,'Helvetica Neue',Helvetica,Arial,sans-serif" font-size="10" fill="#7C8E85" font-weight="600" letter-spacing="1.8">PORTFOLIO</text><text x="306" y="147" font-family="'Segoe UI',Roboto,'Helvetica Neue',Helvetica,Arial,sans-serif" font-size="14" fill="#0F1513">itsmebryle.com</text><text x="578" y="128" font-family="'Segoe UI',Roboto,'Helvetica Neue',Helvetica,Arial,sans-serif" font-size="10" fill="#7C8E85" font-weight="600" letter-spacing="1.8">BASED IN</text><text x="578" y="147" font-family="'Segoe UI',Roboto,'Helvetica Neue',Helvetica,Arial,sans-serif" font-size="14" fill="#0F1513">Manila, Philippines</text></svg>