<svg xmlns="http://www.w3.org/2000/svg" width="880" height="300" viewBox="0 0 880 300" fill="none" role="img" aria-label="Mark Bryan Gabriel — Full Stack Web Developer"><title>Mark Bryan Gabriel — Full Stack Web Developer</title><rect x="0.5" y="0.5" width="879" height="299" rx="14" fill="#FBFCFB" stroke="#DCE5E0" stroke-width="1"/><clipPath id="hc"><rect width="880" height="300" rx="14"/></clipPath><g clip-path="url(#hc)"><rect x="0" y="0" width="880" height="4" rx="0" fill="#0B6B50"/></g><g opacity="0.9"><circle cx="660" cy="56" r="1.4" fill="#DCE5E0"/><circle cx="660" cy="72" r="1.4" fill="#DCE5E0"/><circle cx="660" cy="88" r="1.4" fill="#DCE5E0"/><circle cx="660" cy="104" r="1.4" fill="#DCE5E0"/><circle cx="660" cy="120" r="1.4" fill="#DCE5E0"/><circle cx="676" cy="56" r="1.4" fill="#DCE5E0"/><circle cx="676" cy="72" r="1.4" fill="#DCE5E0"/><circle cx="676" cy="88" r="1.4" fill="#DCE5E0"/><circle cx="676" cy="104" r="1.4" fill="#DCE5E0"/><circle cx="676" cy="120" r="1.4" fill="#DCE5E0"/><circle cx="692" cy="56" r="1.4" fill="#DCE5E0"/><circle cx="692" cy="72" r="1.4" fill="#DCE5E0"/><circle cx="692" cy="88" r="1.4" fill="#DCE5E0"/><circle cx="692" cy="104" r="1.4" fill="#DCE5E0"/><circle cx="692" cy="120" r="1.4" fill="#DCE5E0"/><circle cx="708" cy="56" r="1.4" fill="#DCE5E0"/><circle cx="708" cy="72" r="1.4" fill="#DCE5E0"/><circle cx="708" cy="88" r="1.4" fill="#DCE5E0"/><circle cx="708" cy="104" r="1.4" fill="#DCE5E0"/><circle cx="708" cy="120" r="1.4" fill="#DCE5E0"/><circle cx="724" cy="56" r="1.4" fill="#DCE5E0"/><circle cx="724" cy="72" r="1.4" fill="#DCE5E0"/><circle cx="724" cy="88" r="1.4" fill="#DCE5E0"/><circle cx="724" cy="104" r="1.4" fill="#DCE5E0"/><circle cx="724" cy="120" r="1.4" fill="#DCE5E0"/><circle cx="740" cy="56" r="1.4" fill="#DCE5E0"/><circle cx="740" cy="72" r="1.4" fill="#DCE5E0"/><circle cx="740" cy="88" r="1.4" fill="#DCE5E0"/><circle cx="740" cy="104" r="1.4" fill="#DCE5E0"/><circle cx="740" cy="120" r="1.4" fill="#DCE5E0"/><circle cx="756" cy="56" r="1.4" fill="#DCE5E0"/><circle cx="756" cy="72" r="1.4" fill="#DCE5E0"/><circle cx="756" cy="88" r="1.4" fill="#DCE5E0"/><circle cx="756" cy="104" r="1.4" fill="#DCE5E0"/><circle cx="756" cy="120" r="1.4" fill="#DCE5E0"/><circle cx="772" cy="56" r="1.4" fill="#DCE5E0"/><circle cx="772" cy="72" r="1.4" fill="#DCE5E0"/><circle cx="772" cy="88" r="1.4" fill="#DCE5E0"/><circle cx="772" cy="104" r="1.4" fill="#DCE5E0"/><circle cx="772" cy="120" r="1.4" fill="#DCE5E0"/><circle cx="788" cy="56" r="1.4" fill="#DCE5E0"/><circle cx="788" cy="72" r="1.4" fill="#DCE5E0"/><circle cx="788" cy="88" r="1.4" fill="#DCE5E0"/><circle cx="788" cy="104" r="1.4" fill="#DCE5E0"/><circle cx="788" cy="120" r="1.4" fill="#DCE5E0"/><circle cx="804" cy="56" r="1.4" fill="#DCE5E0"/><circle cx="804" cy="72" r="1.4" fill="#DCE5E0"/><circle cx="804" cy="88" r="1.4" fill="#DCE5E0"/><circle cx="804" cy="104" r="1.4" fill="#DCE5E0"/><circle cx="804" cy="120" r="1.4" fill="#DCE5E0"/><circle cx="820" cy="56" r="1.4" fill="#DCE5E0"/><circle cx="820" cy="72" r="1.4" fill="#DCE5E0"/><circle cx="820" cy="88" r="1.4" fill="#DCE5E0"/><circle cx="820" cy="104" r="1.4" fill="#DCE5E0"/><circle cx="820" cy="120" r="1.4" fill="#DCE5E0"/><circle cx="836" cy="56" r="1.4" fill="#DCE5E0"/><circle cx="836" cy="72" r="1.4" fill="#DCE5E0"/><circle cx="836" cy="88" r="1.4" fill="#DCE5E0"/><circle cx="836" cy="104" r="1.4" fill="#DCE5E0"/><circle cx="836" cy="120" r="1.4" fill="#DCE5E0"/></g><rect x="40" y="46" width="205" height="26" rx="13" fill="#F3F6F4" stroke="#DCE5E0" stroke-width="1"/><circle cx="56" cy="59" r="3.5" fill="#0B6B50"/><text x="68" y="63" font-family="'Segoe UI',Roboto,'Helvetica Neue',Helvetica,Arial,sans-serif" font-size="10" fill="#54655C" font-weight="600" letter-spacing="1.6">OPEN TO OPPORTUNITIES</text><text x="259" y="63" font-family="'Segoe UI',Roboto,'Helvetica Neue',Helvetica,Arial,sans-serif" font-size="10" fill="#7C8E85" letter-spacing="1.6">MANILA, PHILIPPINES</text><text x="40" y="140" font-family="'Segoe UI',Roboto,'Helvetica Neue',Helvetica,Arial,sans-serif" font-size="44" fill="#0F1513" font-weight="600" letter-spacing="-0.8">Mark Bryan Gabriel</text><text x="40" y="168" font-family="'Segoe UI',Roboto,'Helvetica Neue',Helvetica,Arial,sans-serif" font-size="12" fill="#0B6B50" font-weight="600" letter-spacing="3.4">FULL STACK WEB DEVELOPER</text><rect x="40" y="190" width="56" height="2" rx="1" fill="#0B6B50"/><text x="40" y="226" font-family="'Segoe UI',Roboto,'Helvetica Neue',Helvetica,Arial,sans-serif" font-size="16" fill="#0F1513">“Hello World” — still my favorite line of code.</text><text x="40" y="252" font-family="'Segoe UI',Roboto,'Helvetica Neue',Helvetica,Arial,sans-serif" font-size="15" fill="#54655C">I write clean, maintainable code to build functional, user-focused web applications.</text><g transform="translate(854 260) rotate(-90)"><text x="0" y="0" font-family="'Segoe UI',Roboto,'Helvetica Neue',Helvetica,Arial,sans-serif" font-size="10" fill="#7C8E85" letter-spacing="4.2">ITSMEBRYLE</text></g></svg>